<svg width="20" height="20" viewBox="0 0 20 20" fill="none" xmlns="http://www.w3.org/2000/svg">
<path d="M9.95829 14.9998C10.25 14.9998 10.4965 14.8991 10.6979 14.6978C10.8993 14.4964 11 14.2498 11 13.9582C11 13.6665 10.8993 13.42 10.6979 13.2186C10.4965 13.0172 10.25 12.9165 9.95829 12.9165C9.66663 12.9165 9.4201 13.0172 9.21871 13.2186C9.01732 13.42 8.91663 13.6665 8.91663 13.9582C8.91663 14.2498 9.01732 14.4964 9.21871 14.6978C9.4201 14.8991 9.66663 14.9998 9.95829 14.9998ZM9.99996 18.3332C8.84718 18.3332 7.76385 18.1144 6.74996 17.6769C5.73607 17.2394 4.85413 16.6457 4.10413 15.8957C3.35413 15.1457 2.76038 14.2637 2.32288 13.2498C1.88538 12.2359 1.66663 11.1526 1.66663 9.99984C1.66663 8.84706 1.88538 7.76373 2.32288 6.74984C2.76038 5.73595 3.35413 4.854 4.10413 4.104C4.85413 3.354 5.73607 2.76025 6.74996 2.32275C7.76385 1.88525 8.84718 1.6665 9.99996 1.6665C11.1527 1.6665 12.2361 1.88525 13.25 2.32275C14.2638 2.76025 15.1458 3.354 15.8958 4.104C16.6458 4.854 17.2395 5.73595 17.677 6.74984C18.1145 7.76373 18.3333 8.84706 18.3333 9.99984C18.3333 11.1526 18.1145 12.2359 17.677 13.2498C17.2395 14.2637 16.6458 15.1457 15.8958 15.8957C15.1458 16.6457 14.2638 17.2394 13.25 17.6769C12.2361 18.1144 11.1527 18.3332 9.99996 18.3332ZM9.99996 16.6665C11.8611 16.6665 13.4375 16.0207 14.7291 14.729C16.0208 13.4373 16.6666 11.8609 16.6666 9.99984C16.6666 8.13873 16.0208 6.56234 14.7291 5.27067C13.4375 3.979 11.8611 3.33317 9.99996 3.33317C8.13885 3.33317 6.56246 3.979 5.27079 5.27067C3.97913 6.56234 3.33329 8.13873 3.33329 9.99984C3.33329 11.8609 3.97913 13.4373 5.27079 14.729C6.56246 16.0207 8.13885 16.6665 9.99996 16.6665ZM10.0833 6.4165C10.4305 6.4165 10.7326 6.52762 10.9895 6.74984C11.2465 6.97206 11.375 7.24984 11.375 7.58317C11.375 7.88873 11.2812 8.15956 11.0937 8.39567C10.9062 8.63178 10.6944 8.854 10.4583 9.06234C10.1388 9.34012 9.8576 9.64567 9.61454 9.979C9.37149 10.3123 9.24996 10.6873 9.24996 11.104C9.24996 11.2984 9.32288 11.4616 9.46871 11.5936C9.61454 11.7255 9.78468 11.7915 9.97913 11.7915C10.1875 11.7915 10.3645 11.7221 10.5104 11.5832C10.6562 11.4443 10.75 11.2707 10.7916 11.0623C10.8472 10.7707 10.9722 10.5103 11.1666 10.2811C11.3611 10.0519 11.5694 9.83317 11.7916 9.62484C12.1111 9.31928 12.3854 8.98595 12.6145 8.62484C12.8437 8.26373 12.9583 7.86095 12.9583 7.4165C12.9583 6.70817 12.6701 6.12831 12.0937 5.67692C11.5173 5.22553 10.8472 4.99984 10.0833 4.99984C9.55552 4.99984 9.05204 5.11095 8.57288 5.33317C8.09371 5.55539 7.72913 5.89567 7.47913 6.354C7.3819 6.52067 7.35065 6.69775 7.38538 6.88525C7.4201 7.07275 7.51385 7.21512 7.66663 7.31234C7.86107 7.42345 8.06246 7.45817 8.27079 7.4165C8.47913 7.37484 8.65274 7.25678 8.79163 7.06234C8.9444 6.854 9.13538 6.69428 9.36454 6.58317C9.59371 6.47206 9.83329 6.4165 10.0833 6.4165Z" fill="#475A69"/>
</svg>
